<?xml version="1.0" encoding="UTF-8" standalone="no"?>
<svg
   xmlns:dc="http://purl.org/dc/elements/1.1/"
   xmlns:cc="http://creativecommons.org/ns#"
   xmlns:rdf="http://www.w3.org/1999/02/22-rdf-syntax-ns#"
   xmlns:svg="http://www.w3.org/2000/svg"
   xmlns="http://www.w3.org/2000/svg"
   id="svg8"
   version="1.1"
   viewBox="0 0 1365.333374023438 1365.333374023438"
   height="1365.333374023438"
   width="1365.333374023438">
  <title
     id="title4518">JelNiSław</title>
  <defs
     id="defs2" />
  <metadata
     id="metadata5">
    <rdf:RDF>
      <cc:Work
         rdf:about="">
        <dc:format>image/svg+xml</dc:format>
        <dc:type
           rdf:resource="http://purl.org/dc/dcmitype/StillImage" />
        <dc:title>JelNiSław</dc:title>
      </cc:Work>
    </rdf:RDF>
  </metadata>
  <g
     transform="translate(0,119.29919)"
     id="layer1">
    <g
       transform="matrix(0.1333333333333333,0,0,-0.1333333333333333,0,1246.034143333333)"
       id="g841">
      <path
         id="path843"
         style="fill:#1877f2;fill-opacity:1;fill-rule:nonzero;stroke:none"
         d="m 10240,5120 c 0,2827.7 -2292.3,5120 -5120,5120 C 2292.3,10240 0,7947.7 0,5120 0,2564.46 1872.31,446.301 4320,62.19920000000001 V 3640 H 3020 v 1480 h 1300 v 1128 c 0,1283.2 764.380000000001,1992 1933.9,1992 560.17,0 1146.1,-100 1146.1,-100 V 6880 H 6754.380000000001 C 6118.350000000004,6880 5920,6485.33 5920,6080.430000000003 V 5120 H 7340 L 7113,3640 H 5920 V 62.19920000000002 C 8367.69,446.301 10240,2564.46 10240,5120" />
      <path
         id="path845"
         style="fill:#ffffff;fill-opacity:1;fill-rule:nonzero;stroke:none"
         d="m 7113,3640 227,1480 H 5920 v 960.430000000003 C 5920,6485.33 6118.350000000004,6880 6754.380000000001,6880 H 7400 v 1260 c 0,0 -585.93,100 -1146.1,100 C 5084.380000000001,8240 4320,7531.2 4320,6248 V 5120 H 3020 V 3640 H 4320 V 62.19920000000002 C 4580.67,21.3008 4847.840000000001,0 5120,0 c 272.160000000001,0 539.33,21.3008 800,62.19920000000001 V 3640 h 1193" />
    </g>
  </g>
</svg>
