<?xml version="1.0" encoding="UTF-8" standalone="no"?>
<svg
   xmlns:dc="http://purl.org/dc/elements/1.1/"
   xmlns:cc="http://creativecommons.org/ns#"
   xmlns:rdf="http://www.w3.org/1999/02/22-rdf-syntax-ns#"
   xmlns:svg="http://www.w3.org/2000/svg"
   xmlns="http://www.w3.org/2000/svg"
   width="1024"
   height="1024"
   viewBox="0 0 1024 1024"
   version="1.1"
   id="svg8"
   shape-rendering="crispEdges">
  <title
     id="title4518">JelNiSław</title>
  <defs
     id="defs2">
    <marker
       orient="auto"
       refY="0.0"
       refX="0.0"
       id="Arrow1Lstart"
       style="overflow:visible">
      <path
         id="path863"
         d="M 0.0,0.0 L 5.0,-5.0 L -12.5,0.0 L 5.0,5.0 L 0.0,0.0 z "
         style="fill-rule:evenodd;stroke:#000000;stroke-width:1pt;stroke-opacity:1;fill:#ffffff;fill-opacity:1"
         transform="scale(0.8) translate(12.5,0)" />
    </marker>
  </defs>
  <metadata
     id="metadata5">
    <rdf:RDF>
      <cc:Work
         rdf:about="">
        <dc:format>image/svg+xml</dc:format>
        <dc:type
           rdf:resource="http://purl.org/dc/dcmitype/StillImage" />
        <dc:title>JelNiSław</dc:title>
      </cc:Work>
    </rdf:RDF>
  </metadata>
  <g
     id="layer1"
     transform="translate(0,119.29919)">
    <path
       transform="translate(0,-119.29919)"
       d="M 256 128 L 256 256 L 512 256 L 768 256 L 768 128 L 512 128 L 256 128 z M 768 256 L 768 480 L 800 480 L 800 288 L 864 288 L 864 480 L 896 480 L 896 256 L 768 256 z M 864 480 L 800 480 L 800 544 L 864 544 L 864 480 z M 864 544 L 864 736 L 800 736 L 800 544 L 768 544 L 768 768 L 896 768 L 896 544 L 864 544 z M 768 768 L 512 768 L 256 768 L 256 896 L 512 896 L 768 896 L 768 768 z M 256 768 L 256 544 L 224 544 L 224 736 L 160 736 L 160 544 L 128 544 L 128 768 L 256 768 z M 160 544 L 224 544 L 224 480 L 160 480 L 160 544 z M 160 480 L 160 288 L 224 288 L 224 480 L 256 480 L 256 256 L 128 256 L 128 480 L 160 480 z M 288 160 L 736 160 L 736 224 L 288 224 L 288 160 z M 320 320 L 320 400 L 480 400 L 480 320 L 320 320 z M 544 320 L 544 400 L 704 400 L 704 320 L 544 320 z M 448 464 L 448 560 L 576 560 L 576 464 L 448 464 z M 320 480 L 320 544 L 384 544 L 384 480 L 320 480 z M 640 480 L 640 544 L 704 544 L 704 480 L 640 480 z M 320 624 L 320 704 L 480 704 L 480 624 L 320 624 z M 544 624 L 544 704 L 704 704 L 704 624 L 544 624 z M 288 800 L 736 800 L 736 864 L 288 864 L 288 800 z "
       style="fill:#7289da;fill-opacity:1;stroke:none;stroke-width:64;stroke-linecap:butt;stroke-linejoin:miter;stroke-miterlimit:4;stroke-dasharray:none;stroke-opacity:1;stop-color:#000000"
       id="rect1344" />
  </g>
</svg>
